<svg xmlns="http://www.w3.org/2000/svg" xmlns:xlink="http://www.w3.org/1999/xlink" width="154" zoomAndPan="magnify" viewBox="0 0 115.5 33.749998" height="45" preserveAspectRatio="xMidYMid meet" version="1.0"><defs><g/></defs><g fill="#120b0a" fill-opacity="1"><g transform="translate(2.033972, 25.024204)"><g><path d="M 16.125 0 L 10.96875 0 L 4.921875 -6.953125 L 4.921875 0 L 1.1875 0 L 1.1875 -16.390625 L 4.921875 -16.390625 L 4.921875 -9.703125 L 10.546875 -16.390625 L 15.078125 -16.390625 L 8.484375 -8.625 Z M 16.125 0 "/></g></g></g><g fill="#120b0a" fill-opacity="1"><g transform="translate(17.67011, 25.024204)"><g><path d="M 9.515625 -16.390625 L 16.140625 0 L 12.125 0 L 10.90625 -3.28125 L 4.671875 -3.28125 L 3.453125 0 L -0.5625 0 L 6.0625 -16.390625 Z M 9.640625 -6.5625 L 7.8125 -11.328125 L 7.765625 -11.328125 L 5.9375 -6.5625 Z M 9.640625 -6.5625 "/></g></g></g><g fill="#120b0a" fill-opacity="1"><g transform="translate(33.246645, 25.024204)"><g><path d="M 1.53125 -15.875 C 1.9375 -16.289062 2.425781 -16.5 3 -16.5 C 3.570312 -16.5 4.0625 -16.289062 4.46875 -15.875 C 4.882812 -15.46875 5.09375 -14.976562 5.09375 -14.40625 C 5.09375 -13.84375 4.882812 -13.351562 4.46875 -12.9375 C 4.0625 -12.53125 3.570312 -12.328125 3 -12.328125 C 2.425781 -12.328125 1.9375 -12.53125 1.53125 -12.9375 C 1.125 -13.351562 0.921875 -13.84375 0.921875 -14.40625 C 0.921875 -14.976562 1.125 -15.46875 1.53125 -15.875 Z M 1.1875 -10.203125 L 1.1875 0 L 4.703125 0 L 4.703125 -10.203125 Z M 1.1875 -10.203125 "/></g></g></g><g fill="#120b0a" fill-opacity="1"><g transform="translate(39.24679, 25.024204)"><g><path d="M 1.875 -1.265625 C 0.925781 -2.304688 0.453125 -3.582031 0.453125 -5.09375 C 0.453125 -6.601562 0.925781 -7.878906 1.875 -8.921875 C 2.832031 -9.972656 4.050781 -10.5 5.53125 -10.5 C 6.875 -10.5 7.984375 -10.070312 8.859375 -9.21875 L 8.859375 -17.09375 L 12.375 -17.09375 L 12.375 0 L 8.90625 0 L 8.90625 -1.15625 L 8.859375 -1.15625 C 7.984375 -0.1875 6.875 0.296875 5.53125 0.296875 C 4.050781 0.296875 2.832031 -0.222656 1.875 -1.265625 Z M 4.875 -6.8125 C 4.414062 -6.363281 4.1875 -5.785156 4.1875 -5.078125 C 4.1875 -4.378906 4.40625 -3.804688 4.84375 -3.359375 C 5.28125 -2.921875 5.859375 -2.703125 6.578125 -2.703125 C 7.265625 -2.703125 7.828125 -2.925781 8.265625 -3.375 C 8.710938 -3.820312 8.9375 -4.394531 8.9375 -5.09375 C 8.9375 -5.789062 8.707031 -6.363281 8.25 -6.8125 C 7.800781 -7.269531 7.242188 -7.5 6.578125 -7.5 C 5.898438 -7.5 5.332031 -7.269531 4.875 -6.8125 Z M 4.875 -6.8125 "/></g></g></g><g fill="#120b0a" fill-opacity="1"><g transform="translate(52.816655, 25.024204)"><g><path d="M 11.5 -4.609375 L 4.109375 -4.609375 C 4.109375 -3.890625 4.335938 -3.359375 4.796875 -3.015625 C 5.265625 -2.671875 5.769531 -2.5 6.3125 -2.5 C 6.882812 -2.5 7.335938 -2.578125 7.671875 -2.734375 C 8.003906 -2.890625 8.378906 -3.191406 8.796875 -3.640625 L 11.34375 -2.359375 C 10.289062 -0.585938 8.53125 0.296875 6.0625 0.296875 C 4.519531 0.296875 3.195312 -0.226562 2.09375 -1.28125 C 1 -2.332031 0.453125 -3.597656 0.453125 -5.078125 C 0.453125 -6.566406 1 -7.84375 2.09375 -8.90625 C 3.195312 -9.96875 4.519531 -10.5 6.0625 -10.5 C 7.675781 -10.5 8.988281 -10.03125 10 -9.09375 C 11.019531 -8.15625 11.53125 -6.820312 11.53125 -5.09375 C 11.53125 -4.851562 11.519531 -4.691406 11.5 -4.609375 Z M 4.21875 -6.5625 L 8.09375 -6.5625 C 8.007812 -7.09375 7.796875 -7.5 7.453125 -7.78125 C 7.117188 -8.0625 6.6875 -8.203125 6.15625 -8.203125 C 5.570312 -8.203125 5.109375 -8.050781 4.765625 -7.75 C 4.421875 -7.445312 4.238281 -7.050781 4.21875 -6.5625 Z M 4.21875 -6.5625 "/></g></g></g><g fill="#120b0a" fill-opacity="1"><g transform="translate(64.797081, 25.024204)"><g/></g></g><g fill="#120b0a" fill-opacity="1"><g transform="translate(70.221061, 25.024204)"><g><path d="M 9.515625 -16.390625 L 16.140625 0 L 12.125 0 L 10.90625 -3.28125 L 4.671875 -3.28125 L 3.453125 0 L -0.5625 0 L 6.0625 -16.390625 Z M 9.640625 -6.5625 L 7.8125 -11.328125 L 7.765625 -11.328125 L 5.9375 -6.5625 Z M 9.640625 -6.5625 "/></g></g></g><g fill="#120b0a" fill-opacity="1"><g transform="translate(85.797596, 25.024204)"><g><path d="M 11.6875 -8.9375 C 12.644531 -7.894531 13.125 -6.617188 13.125 -5.109375 C 13.125 -3.597656 12.644531 -2.316406 11.6875 -1.265625 C 10.726562 -0.222656 9.515625 0.296875 8.046875 0.296875 C 6.691406 0.296875 5.578125 -0.125 4.703125 -0.96875 L 4.703125 5.171875 L 1.1875 5.171875 L 1.1875 -10.203125 L 4.671875 -10.203125 L 4.671875 -9.046875 L 4.703125 -9.046875 C 5.578125 -10.015625 6.691406 -10.5 8.046875 -10.5 C 9.515625 -10.5 10.726562 -9.976562 11.6875 -8.9375 Z M 8.6875 -3.375 C 9.144531 -3.820312 9.375 -4.394531 9.375 -5.09375 C 9.375 -5.800781 9.15625 -6.378906 8.71875 -6.828125 C 8.28125 -7.273438 7.707031 -7.5 7 -7.5 C 6.3125 -7.5 5.742188 -7.269531 5.296875 -6.8125 C 4.847656 -6.363281 4.625 -5.796875 4.625 -5.109375 C 4.625 -4.398438 4.851562 -3.820312 5.3125 -3.375 C 5.769531 -2.925781 6.332031 -2.703125 7 -2.703125 C 7.675781 -2.703125 8.238281 -2.925781 8.6875 -3.375 Z M 8.6875 -3.375 "/></g></g></g><g fill="#120b0a" fill-opacity="1"><g transform="translate(99.367461, 25.024204)"><g><path d="M 11.6875 -8.9375 C 12.644531 -7.894531 13.125 -6.617188 13.125 -5.109375 C 13.125 -3.597656 12.644531 -2.316406 11.6875 -1.265625 C 10.726562 -0.222656 9.515625 0.296875 8.046875 0.296875 C 6.691406 0.296875 5.578125 -0.125 4.703125 -0.96875 L 4.703125 5.171875 L 1.1875 5.171875 L 1.1875 -10.203125 L 4.671875 -10.203125 L 4.671875 -9.046875 L 4.703125 -9.046875 C 5.578125 -10.015625 6.691406 -10.5 8.046875 -10.5 C 9.515625 -10.5 10.726562 -9.976562 11.6875 -8.9375 Z M 8.6875 -3.375 C 9.144531 -3.820312 9.375 -4.394531 9.375 -5.09375 C 9.375 -5.800781 9.15625 -6.378906 8.71875 -6.828125 C 8.28125 -7.273438 7.707031 -7.5 7 -7.5 C 6.3125 -7.5 5.742188 -7.269531 5.296875 -6.8125 C 4.847656 -6.363281 4.625 -5.796875 4.625 -5.109375 C 4.625 -4.398438 4.851562 -3.820312 5.3125 -3.375 C 5.769531 -2.925781 6.332031 -2.703125 7 -2.703125 C 7.675781 -2.703125 8.238281 -2.925781 8.6875 -3.375 Z M 8.6875 -3.375 "/></g></g></g></svg>